<mxfile host="app.diagrams.net" modified="2024-05-14T07:44:53.127Z" agent="Mozilla/5.0 (X11; Linux x86_64) AppleWebKit/537.36 (KHTML, like Gecko) Chrome/124.0.0.0 Safari/537.36" version="24.3.1" etag="UW8TZdQM5o6h5WUOxYQX" type="github">
  <diagram name="第 1 页" id="9xV0vKcbIRc21AhuCy0m">
    <mxGraphModel>
      <root>
        <mxCell id="0" />
        <mxCell id="1" parent="0" />
      </root>
    </mxGraphModel>
  </diagram>
</mxfile>
